<?xml version="1.0" encoding="UTF-8" standalone="no"?>
<!-- Created with Inkscape (http://www.inkscape.org/) -->

<svg
   width="7.4083495mm"
   height="7.4083495mm"
   viewBox="0 0 7.4083495mm 7.4083495"
   version="1.1"
   id="svg1"
   xml:space="preserve"
   xmlns="http://www.w3.org/2000/svg"
   xmlns:svg="http://www.w3.org/2000/svg"><defs
     id="defs1" /><g
     id="layer1"
     transform="translate(-100.47972,-143.17247)"><path
       style="fill:#ffffff;stroke:#000000;stroke-width:0.146982"
       d="m 100.70449,146.61926 c 0.55111,-0.4035 0.90771,0.55508 1.37984,1.10731 l -0.034,-3.49219 c 0.13592,-0.60706 0.92248,-0.68333 1.03913,0.0511 v 2.69154 -3.10039 c 0.026,-0.90015 1.02729,-0.7635 1.00507,-0.0511 l -0.0511,3.18555 0.0511,-3.13445 c 0.0466,-0.40932 0.93104,-0.51263 0.95396,0.20444 l -2e-5,3.28777 -3e-5,-2.41898 c 0.005,-0.59159 0.87741,-0.73879 0.91991,0.10221 -0.0113,1.37417 -0.0169,1.84122 -0.0171,3.56034 -0.0174,1.61987 -1.00362,1.9105 -2.01807,1.89427 -2.24413,-0.036 -2.01449,-0.84021 -2.95617,-2.55869 -0.38962,-0.87801 -0.57331,-1.01305 -0.27249,-1.32873 z"
       id="path1" /></g></svg>
