<?xml version="1.0" encoding="UTF-8" standalone="no"?>
<svg
   viewBox="0 0 1200 900"
   fill="none"
   version="1.1"
   id="svg33"
   sodipodi:docname="pc_stitch_designer.svg"
   inkscape:version="1.3.2 (091e20e, 2023-11-25, custom)"
   xmlns:inkscape="http://www.inkscape.org/namespaces/inkscape"
   xmlns:sodipodi="http://sodipodi.sourceforge.net/DTD/sodipodi-0.dtd"
   xmlns="http://www.w3.org/2000/svg"
   xmlns:svg="http://www.w3.org/2000/svg">
  <defs
     id="defs33" />
  <sodipodi:namedview
     id="namedview33"
     pagecolor="#ffffff"
     bordercolor="#000000"
     borderopacity="0.25"
     inkscape:showpageshadow="2"
     inkscape:pageopacity="0.0"
     inkscape:pagecheckerboard="0"
     inkscape:deskcolor="#d1d1d1"
     inkscape:zoom="0.48672517"
     inkscape:cx="495.14595"
     inkscape:cy="555.75511"
     inkscape:window-width="1920"
     inkscape:window-height="1009"
     inkscape:window-x="-8"
     inkscape:window-y="-8"
     inkscape:window-maximized="1"
     inkscape:current-layer="svg33" />
  <path
     id="rect1"
     style="fill:#f9f9f9;stroke:#111111;stroke-width:5;stroke-linecap:round;stroke-linejoin:round"
     d="m 164,120 h 858 c 15.512,0 28.061,12.48812 28,28 -0.7852,199.52591 -0.2359,402.2466 -0.3529,603.90448 0,0 0.5548,15.41803 -5.5893,21.71244 -7.1403,7.31508 -20.8698,5.77393 -20.8698,5.77393 L 92.711032,779.26154 c 0,0 -4.717826,-0.6308 -8.691942,-4.92012 -3.917964,-4.22872 -3.26327,-9.27836 -3.26327,-9.27836 l 0.213678,-50.66851 c 0,0 -0.132962,-7.25413 0.769445,-12.99083 1.062093,-6.75184 0.991047,-7.06804 4.612767,-12.7985 15.39367,-24.35662 57.64998,-82.64823 57.64998,-82.64823 0,0 2.02006,-3.05736 8.62377,-7.9708 5.05145,-3.7585 18.40354,-2.05414 19.00473,-2.20444 l 562.99754,-4.63578 c 0,0 8.58202,0.51439 12.28673,-3.20752 3.61271,-3.62949 3.51845,-12.28117 3.51845,-12.28117 l 0.64789,-193.57456 c 0,0 3.68705,-41.07587 -6.74296,-52.09491 -8.39127,-8.86516 -53.09968,-7.17126 -53.09968,-7.17126 l -241.76601,-0.44114 c 0,0 -25.4598,-2.27276 -35.82101,12.56573 -13.26969,19.00378 -15.96446,38.19596 -15.96446,38.19596 l -18.26697,78.21079 c 0,0 -2.19463,10.98437 -7.04021,15.06534 -4.0761,3.4329 -15.26023,3.78241 -15.26023,3.78241 L 198.6139,469.55028 c 0,0 -8.20838,-0.0607 -15.30515,-4.47542 -9.26013,-5.76053 -11.20817,-14.04759 -11.20817,-14.04759 0,0 -17.77056,-75.74114 -22.1782,-96.91663 C 147.13912,340.73902 136.00323,323.25331 136,314.50942 135.98089,262.76765 136,148 136,148 c 0,-15.512 12.488,-28 28,-28 z"
     sodipodi:nodetypes="ssscsccsccsscsccsccsccsccsccscssss" />
  <path
     id="line1"
     style="stroke:#111111;stroke-width:5;stroke-linecap:round;stroke-linejoin:round"
     d="m 240,120 v 195.74575 c 0,0 9.93793,22.79752 10,35.84549 C 250.21732,397.27789 250,470 250,470"
     sodipodi:nodetypes="ccsc" />
  <path
     id="line1-0"
     style="stroke:#111111;stroke-width:5;stroke-linecap:round;stroke-linejoin:round"
     d="m 262.1273,119.63648 v 195.74575 c 0,0 9.93793,22.79752 10,35.84549 0.21732,45.68665 0,118.40876 0,118.40876"
     sodipodi:nodetypes="ccsc" />
  <path
     style="fill:#e6e6e6;stroke:#111111;stroke-width:2;stroke-dasharray:none;stroke-opacity:1"
     d="m 211.318,596.24875 -33.24221,56.02659 148.70191,-0.22565 26.7305,-57.61692 z"
     id="path39"
     sodipodi:nodetypes="ccccc" />
  <g
     id="g38"
     transform="translate(-32.872761,-28.709118)">
    <rect
       x="286.04669"
       y="499.04669"
       width="17.25201"
       height="106.49747"
       rx="3.450402"
       id="rect2"
       style="stroke:#111111;stroke-width:3.09342;stroke-linecap:round;stroke-linejoin:round;fill:#f2f2f2" />
    <line
       x1="295"
       y1="607.69165"
       x2="295"
       y2="649.69836"
       id="line3"
       style="stroke:#111111;stroke-width:4.50335;stroke-linecap:round;stroke-linejoin:round;stroke-dasharray:none" />
    <rect
       x="259.93561"
       y="645.82654"
       width="70.128738"
       height="13.506011"
       rx="4.0073566"
       id="rect3"
       style="stroke:#111111;stroke-width:5;stroke-linecap:round;stroke-linejoin:round;stroke-dasharray:none" />
    <path
       d="m 307,504.93462 h 35 v 55"
       id="path4"
       style="stroke:#111111;stroke-width:5;stroke-linecap:round;stroke-linejoin:round" />
  </g>
  <rect
     x="79.369362"
     y="779.36938"
     width="972.90771"
     height="61.952126"
     rx="11.913157"
     id="rect5"
     style="stroke:#111111;stroke-width:3.73873;stroke-linecap:round;stroke-linejoin:round;fill:#e6e6e6" />
  <g
     id="g35"
     transform="matrix(1.2457157,0,0,1.1833709,-209.08047,-26.108459)"
     style="fill:#00b3ce;fill-opacity:1">
    <rect
       x="656.58594"
       y="164.18886"
       width="300"
       height="95"
       rx="10"
       id="rect7"
       style="fill:#00b3ce;fill-opacity:1;stroke:#111111;stroke-width:5;stroke-linecap:round;stroke-linejoin:round" />
    <line
       x1="690.41809"
       y1="184.40904"
       x2="690.41809"
       y2="239.40904"
       id="line8-6"
       style="fill:#00b3ce;fill-opacity:1;stroke:#111111;stroke-width:5;stroke-linecap:round;stroke-linejoin:round" />
    <path
       d="m 741.16223,184.18886 -10,15 10,15 -11.02291,14.89998 9.37642,13.17508"
       id="path8"
       style="fill:#00b3ce;fill-opacity:1;stroke:#111111;stroke-width:5;stroke-linecap:round;stroke-linejoin:round"
       sodipodi:nodetypes="ccccc" />
    <path
       d="m 778.08717,182.73607 15,20 -15,20 15,20"
       id="path9"
       style="fill:#00b3ce;fill-opacity:1;stroke:#111111;stroke-width:5;stroke-linecap:round;stroke-linejoin:round" />
  </g>
  <rect
     x="897.8811"
     y="389.67416"
     width="33.530273"
     height="43.699577"
     rx="5.7480474"
     id="rect10"
     style="fill:#e6e6e6;stroke:#111111;stroke-width:4.82266;stroke-linecap:round;stroke-linejoin:round" />
  <rect
     x="940.98199"
     y="389.67416"
     width="33.530273"
     height="43.699577"
     rx="5.7480474"
     id="rect11"
     style="fill:#e6e6e6;stroke:#111111;stroke-width:4.823;stroke-linecap:round;stroke-linejoin:round;stroke-dasharray:none" />
  <rect
     x="812.29346"
     y="337.2457"
     width="33.530273"
     height="43.699577"
     rx="5.7480474"
     id="rect12"
     style="fill:#e6e6e6;stroke:#111111;stroke-width:4.82266;stroke-linecap:round;stroke-linejoin:round" />
  <rect
     x="855.39441"
     y="337.2457"
     width="33.530273"
     height="43.699577"
     rx="5.7480474"
     id="rect13"
     style="fill:#e6e6e6;stroke:#111111;stroke-width:4.82266;stroke-linecap:round;stroke-linejoin:round" />
  <rect
     x="898.4953"
     y="337.2457"
     width="33.530273"
     height="43.699577"
     rx="5.7480474"
     id="rect14"
     style="fill:#e6e6e6;stroke:#111111;stroke-width:4.82266;stroke-linecap:round;stroke-linejoin:round" />
  <rect
     x="941.59619"
     y="337.2457"
     width="33.530273"
     height="43.699577"
     rx="5.7480474"
     id="rect15"
     style="fill:#e6e6e6;stroke:#111111;stroke-width:4.82266;stroke-linecap:round;stroke-linejoin:round" />
  <rect
     x="854.78021"
     y="389.67416"
     width="33.530273"
     height="43.699577"
     rx="5.7480474"
     id="rect11-1"
     style="fill:#e6e6e6;stroke:#111111;stroke-width:4.82266;stroke-linecap:round;stroke-linejoin:round" />
  <rect
     x="811.67932"
     y="389.67416"
     width="33.530273"
     height="43.699577"
     rx="5.7480474"
     id="rect11-1-7"
     style="fill:#e6e6e6;stroke:#111111;stroke-width:4.82266;stroke-linecap:round;stroke-linejoin:round" />
  <line
     x1="803.29089"
     y1="465.15439"
     x2="993.29089"
     y2="465.15439"
     id="line27"
     style="stroke:#111111;stroke-width:5;stroke-linecap:round;stroke-linejoin:round" />
  <line
     x1="147.67001"
     y1="324.6908"
     x2="233.77335"
     y2="324.6908"
     id="line27-0"
     style="stroke:#111111;stroke-width:3.36592;stroke-linecap:round;stroke-linejoin:round" />
  <line
     x1="278.93475"
     y1="324.22037"
     x2="409.70267"
     y2="324.22037"
     id="line27-0-1"
     style="stroke:#111111;stroke-width:4.14805;stroke-linecap:round;stroke-linejoin:round" />
  <line
     x1="82.493507"
     y1="706.04504"
     x2="607.8891"
     y2="706.04504"
     id="line27-0-1-6"
     style="stroke:#111111;stroke-width:2.5;stroke-linecap:round;stroke-linejoin:round;stroke-dasharray:none;stroke-opacity:1" />
  <line
     x1="750.91125"
     y1="702.14117"
     x2="1048.4689"
     y2="702.14117"
     id="line27-0-1-6-7-2"
     style="stroke:#111111;stroke-width:1.8814;stroke-linecap:round;stroke-linejoin:round;stroke-dasharray:none;stroke-opacity:1" />
  <line
     x1="111.52485"
     y1="653.52087"
     x2="608.07709"
     y2="653.52087"
     id="line27-0-1-6-9"
     style="stroke:#111111;stroke-width:2.02071;stroke-linecap:round;stroke-linejoin:round;stroke-dasharray:none;stroke-opacity:1" />
  <line
     x1="608.45563"
     y1="654.08746"
     x2="608.45563"
     y2="777.58289"
     id="line27-0-1-6-9-0"
     style="stroke:#111111;stroke-width:2.01559;stroke-linecap:round;stroke-linejoin:round;stroke-dasharray:none;stroke-opacity:1" />
  <line
     x1="320.26483"
     y1="623.28442"
     x2="330.21536"
     y2="623.28442"
     id="line27-0-1-6-2"
     style="stroke:#111111;stroke-width:3;stroke-linecap:round;stroke-linejoin:round;stroke-dasharray:none;stroke-opacity:1" />
  <line
     x1="803.29089"
     y1="480.15439"
     x2="993.29089"
     y2="480.15439"
     id="line28"
     style="stroke:#111111;stroke-width:5;stroke-linecap:round;stroke-linejoin:round" />
  <circle
     id="path1"
     style="fill:#e6e6e6;stroke:#111111"
     cx="607.9903"
     cy="706.05328"
     r="0.45710903" />
  <circle
     id="path2"
     style="fill:#e6e6e6;stroke:#111111"
     cx="608.71667"
     cy="706.05328"
     r="0.45710903" />
  <path
     style="fill:none;stroke:#111111;stroke-width:2.5;stroke-dasharray:none"
     d="m 607.99031,706.05326 c 0,0 125.84745,0.5448 133.83777,0.1816 0,0 3.73511,0.55402 7.99031,-4.17675 3.68225,-4.09378 2.82249,-10.70861 2.82249,-10.70861 0,0 -1.41097,-34.30552 -2.26234,-51.79697 -0.82869,-17.02543 -2.73932,-51.7196 -2.73932,-51.7196"
     id="path3"
     sodipodi:nodetypes="csscsc" />
  <rect
     x="308.73218"
     y="390.21786"
     width="33.530273"
     height="43.699577"
     rx="5.7480474"
     id="rect12-8"
     style="fill:#e6e6e6;stroke:#111111;stroke-width:4.82266;stroke-linecap:round;stroke-linejoin:round" />
  <circle
     style="fill:#e6e6e6;fill-opacity:1;stroke:#111111;stroke-width:5;stroke-dasharray:none"
     id="path5"
     cx="359.56415"
     cy="221.54964"
     r="50.121063" />
</svg>
